PathFileType	4	(X/Y/Z)
DataRate	CameraRate	NumFrames	NumMarkers	Units	OrigDataRate	OrigDataStartFrame	OrigNumFrames	
	120.0	120.0	4	39	mm	120.0	72	142
Frame#	Time	midhip	hip_r	hip_l	knee_r	knee_l	ankle_r	ankle_l	midasis	asis_r	asis_l	psis_r	psis_l	epicondLat_r	epicondLat_l	epicondMed_r	epicondMed_l	malleolusLat_r	malleolusLat_l	malleolusMedv_r	malleolusMedv_l	heel_r	heel_l	sternalnotch	xyphoidprocess	neck	subclavicle_r	subclavicle_l	toe_r	toe_l	thighwand_r	thighwand_l	upperleg1_r	upperleg1_l	upperleg2_r	upperleg2_l	shankwand_r	shankwand_l	lowerleg1_r	lowerleg1_l
	X1	Y1	Z1	X2	Y2	Z2	X3	Y3	Z3	X4	Y4	Z4	X5	Y5	Z5	X6	Y6	Z6	X7	Y7	Z7	X8	Y8	Z8	X9	Y9	Z9	X10	Y10	Z10	X11	Y11	Z11	X12	Y12	Z12	X13	Y13	Z13	X14	Y14	Z14	X15	Y15	Z15	X16	Y16	Z16	X17	Y17	Z17	X18	Y18	Z18	X19	Y19	Z19	X20	Y20	Z20	X21	Y21	Z21	X22	Y22	Z22	X23	Y23	Z23	X24	Y24	Z24	X25	Y25	Z25	X26	Y26	Z26	X27	Y27	Z27	X28	Y28	Z28	X29	Y29	Z29	X30	Y30	Z30	X31	Y31	Z31	X32	Y32	Z32	X33	Y33	Z33	X34	Y34	Z34	X35	Y35	Z35	X36	Y36	Z36	X37	Y37	Z37	X38	Y38	Z38	X39	Y39	Z39

	72	0.60000	537.453	743.334	-263.281	529.195	745.114	-198.673	545.712	741.553	-327.888	478.716	406.425	-155.243	483.626	424.002	-352.786	511.989	66.911	-118.989	494.577	70.305	-390.890	609.847	809.641	-255.854	596.561	812.506	-151.922	623.132	806.777	-359.787	451.487	855.914	-243.720	454.823	853.969	-298.716	474.202	414.058	-100.963	482.085	428.560	-407.073	485.582	407.297	-207.923	487.688	400.398	-305.595	499.606	69.467	-83.685	484.228	73.793	-426.242	515.337	66.024	-141.689	497.775	66.491	-372.417	477.569	37.307	-143.737	437.234	41.256	-380.975	550.034	1172.676	-273.864	586.932	1093.897	-274.576	457.047	1219.049	-288.254	561.961	1172.700	-234.134	566.029	1177.552	-308.961	607.060	36.748	-84.826	595.845	38.971	-420.605	589.033	529.050	-55.960	657.553	526.792	-356.056	524.256	588.665	-97.273	597.237	597.742	-382.157	513.904	501.482	-105.904	572.177	513.446	-385.183	465.773	185.312	-20.994	489.893	205.463	-487.785	480.282	144.587	-91.421	478.190	158.321	-419.178
	73	0.60833	537.456	743.336	-263.280	529.203	745.126	-198.672	545.710	741.546	-327.888	478.729	406.446	-155.249	483.630	424.010	-352.772	511.994	66.926	-118.987	494.593	70.309	-390.885	609.865	809.629	-255.866	596.590	812.508	-151.948	623.140	806.750	-359.785	451.502	855.945	-243.714	454.832	853.987	-298.721	474.214	414.078	-100.969	482.077	428.567	-407.059	485.757	407.324	-207.954	487.720	400.393	-305.619	499.611	69.483	-83.683	484.237	73.798	-426.234	515.381	66.066	-141.683	497.786	66.521	-372.415	477.590	37.300	-143.728	437.225	41.276	-380.981	549.514	1172.648	-273.694	586.187	1093.767	-274.691	457.061	1219.103	-288.245	561.962	1172.739	-234.157	565.062	1177.392	-308.976	607.061	36.754	-84.830	595.855	38.959	-420.591	589.045	529.059	-55.964	657.553	526.772	-356.061	524.229	588.717	-97.261	597.220	597.783	-382.167	513.966	501.510	-105.912	572.178	513.457	-385.198	465.781	185.326	-20.999	489.889	205.467	-487.781	480.287	144.606	-91.469	478.202	158.355	-419.183
	74	0.61667	537.463	743.341	-263.281	529.214	745.137	-198.672	545.712	741.544	-327.889	478.740	406.465	-155.256	483.633	424.025	-352.764	511.997	66.945	-118.984	494.602	70.318	-390.882	609.883	809.622	-255.877	596.617	812.511	-151.970	623.150	806.732	-359.784	451.524	855.972	-243.710	454.844	854.000	-298.724	474.226	414.096	-100.975	482.075	428.582	-407.050	485.916	407.311	-207.959	487.696	400.422	-305.656	499.614	69.504	-83.681	484.243	73.807	-426.230	515.389	66.099	-141.679	497.799	66.551	-372.418	477.609	37.296	-143.720	437.216	41.296	-380.983	549.981	1172.718	-273.811	586.802	1093.903	-274.438	457.090	1219.136	-288.237	561.965	1172.801	-234.128	565.932	1177.517	-308.909	607.054	36.764	-84.828	595.857	38.954	-420.585	589.057	529.070	-55.967	657.559	526.760	-356.070	524.247	588.750	-97.259	597.211	597.817	-382.164	514.037	501.497	-105.914	572.161	513.498	-385.214	465.785	185.341	-21.004	489.884	205.476	-487.778	480.275	144.646	-91.478	478.192	158.403	-419.183
	75	0.62500	537.472	743.342	-263.284	529.227	745.143	-198.675	545.717	741.541	-327.893	478.757	406.476	-155.265	483.640	424.038	-352.760	512.002	66.958	-118.985	494.611	70.321	-390.881	609.902	809.614	-255.888	596.642	812.511	-151.990	623.161	806.717	-359.787	451.552	855.989	-243.707	454.856	854.008	-298.725	474.242	414.106	-100.984	482.082	428.594	-407.047	485.856	407.275	-207.907	487.962	400.311	-305.499	499.618	69.518	-83.681	484.251	73.810	-426.230	515.374	66.101	-141.678	497.800	66.558	-372.418	477.628	37.288	-143.715	437.207	41.310	-380.982	550.367	1172.759	-273.868	587.319	1094.004	-274.208	457.131	1219.124	-288.248	561.959	1172.822	-234.063	566.655	1177.618	-308.808	607.041	36.774	-84.822	595.856	38.950	-420.588	589.075	529.076	-55.973	657.569	526.748	-356.084	524.305	588.736	-97.262	597.056	597.853	-382.201	514.044	501.463	-105.894	572.167	513.504	-385.181	465.788	185.351	-21.009	489.882	205.481	-487.776	480.256	144.673	-91.451	478.199	158.419	-419.171
